PathFileType	4	(x/y/z)	S05_M20_T08
DataRate	CameraRate	NumFrames	NumMarkers	Units	OrigDataRate	OrigDataStartFrame	OrigNumFrames
240	240	11	50	mm	240	130	518
Frame#	Time	Sternum			R.Acromium			L.Acromium			Top.Head			R.ASIS			L.ASIS			R.PSIS			L.PSIS			R.Great.Tro			L.Great.Tro			R.Iliac.Crest			L.Iliac.Crest			V.Sacral			R.Thigh.Upper.Post			R.Thigh.Lower.Ant			R.Thigh.Lower.Post			R.Thigh.Upper.Ant			R.Knee.Lat			R.Knee.Med			R.Shank.Upper.Post			R.Shank.Lower.Ant			R.Shank.Lower.Post			R.Shank.Upper.Ant			R.Ankle.Lat			R.Ankle.Med			R.Heel.Upper			R.Heel.Med			R.Heel.Lat			R.Toe.Lat			R.Toe.Med			R.Toe.Tip			L.Thigh.Upper.Post			L.Thigh.Lower.Ant			L.Thigh.Lower.Post			L.Thigh.Upper.Ant			L.Knee.Lat			L.Shank.Upper.Post			L.Shank.Lower.Ant			L.Shank.Lower.Post			L.Shank.Upper.Ant			L.Ankle.Lat			L.Ankle.Med			L.Heel.Upper			L.Heel.Med			L.Heel.Lat			L.Toe.Lat			L.Toe.Med			L.Toe.Tip			Cervical.Spine			Back			
		X1	Y1	Z1	X2	Y2	Z2	X3	Y3	Z3	X4	Y4	Z4	X5	Y5	Z5	X6	Y6	Z6	X7	Y7	Z7	X8	Y8	Z8	X9	Y9	Z9	X10	Y10	Z10	X11	Y11	Z11	X12	Y12	Z12	X13	Y13	Z13	X14	Y14	Z14	X15	Y15	Z15	X16	Y16	Z16	X17	Y17	Z17	X18	Y18	Z18	X19	Y19	Z19	X20	Y20	Z20	X21	Y21	Z21	X22	Y22	Z22	X23	Y23	Z23	X24	Y24	Z24	X25	Y25	Z25	X26	Y26	Z26	X27	Y27	Z27	X28	Y28	Z28	X29	Y29	Z29	X30	Y30	Z30	X31	Y31	Z31	X32	Y32	Z32	X33	Y33	Z33	X34	Y34	Z34	X35	Y35	Z35	X36	Y36	Z36	X37	Y37	Z37	X38	Y38	Z38	X39	Y39	Z39	X40	Y40	Z40	X41	Y41	Z41	X42	Y42	Z42	X43	Y43	Z43	X44	Y44	Z44	X45	Y45	Z45	X46	Y46	Z46	X47	Y47	Z47	X48	Y48	Z48	X49	Y49	Z49	X50	Y50	Z50	

130	0.5375	-199.17	1258.1	254.35	-273.5	1529.3	398.97	-289.49	1532.5	70.725	-281.56	1819.5	220.94	-268.52	1013	390.48	-271.66	1009.3	141.15	-470.66	1030.1	311.81	-471.22	1036.1	220.65	-339.15	936.84	464.38	-373.41	936.42	75.297	-354.52	1099.3	430.68	-359.27	1087.5	95.71	-484.53	998.04	278.25	-180.74	753.69	463.82	-108.72	714.24	402.98	-151.36	670.24	442.86	-142.85	794.44	422.32	-121.29	582.49	420.67	-109.08	572.28	286.94	-129.52	331.37	404.1	-51.801	286.67	409.67	-106.91	259.2	388.36	-74.321	359.79	423.39	-36.872	179.41	391.24	-17.299	216.75	307.87	-68.972	103.91	326.55	-41.939	82.887	299.67	-49.615	80.539	363.35	97.91	140.78	430.36	132.1	171.9	317.28	175.16	215.06	368.07	-414.95	700.96	91.003	-348.96	614.55	113.21	-420.7	607.27	111.33	-336.28	702.59	90.638	-427.11	515.77	121.78	-525.47	328.4	132.85	-470.04	259.1	136.51	-539.73	259.55	154.39	-459.75	327.67	120.86	-533.01	120.31	167.46	-495.61	132.01	253.64	-594.47	71.703	224.3	-582.88	45.542	255.82	-594.54	45.27	194.95	-414.57	35.904	132.16	-385.85	47.416	251.45	-324.45	53.465	193.9	-333.1	1566.5	239.39	-461.94	1295.7	251.94
131	0.54167	-194.15	1257.1	254.34	-268.18	1528.2	399.43	-284.38	1531.8	71.191	-276.43	1818.5	221.89	-262.94	1011.8	390.25	-266.89	1008.6	140.94	-465.32	1029.2	312.12	-466.17	1035.4	220.98	-333.53	935.54	464.23	-368.99	935.86	75.23	-348.75	1098.1	430.8	-354.61	1086.9	95.818	-479.33	997.24	278.56	-176.3	751.51	463.4	-104.58	711.72	402.42	-147.35	667.92	442.38	-138.29	792.06	421.83	-117.27	580.44	420.05	-105.07	570.18	285.97	-119.54	329.47	404.28	-40.843	286.78	410.25	-95.034	257.85	388.77	-65.248	359.33	423.65	-22.818	179.72	392.2	-4.0989	217.34	308.81	-52.823	103.24	327.66	-25.164	82.865	300.9	-32.904	80.458	364.57	112.87	144.76	431.83	146.45	176.45	318.66	188.27	220.86	369.44	-411.66	700.69	90.97	-346.08	613.97	113.18	-417.86	607.04	111.29	-333	701.92	90.541	-424.86	515.51	121.81	-524.17	328.61	132.96	-469.09	259.03	136.58	-538.74	259.87	154.52	-458.47	327.54	120.9	-532.74	120.53	167.62	-495.22	132.07	253.79	-594.31	71.809	224.5	-582.75	45.636	256.01	-594.47	45.433	195.14	-414.55	35.924	132.19	-385.74	47.306	251.47	-324.37	53.301	193.89	-327.97	1565.6	239.96	-456.9	1294.8	252.43
132	0.54583	-189.11	1256.1	254.34	-262.85	1527	399.91	-279.25	1531	71.674	-271.29	1817.5	222.85	-257.34	1010.6	390.03	-262.11	1007.8	140.74	-459.94	1028.3	312.45	-461.09	1034.6	221.33	-327.88	934.18	464.07	-364.54	935.28	75.158	-342.94	1096.9	430.92	-349.93	1086.2	95.932	-474.1	996.42	278.89	-171.89	749.25	462.97	-100.47	709.13	401.87	-143.38	665.53	441.89	-133.76	789.62	421.32	-113.28	578.34	419.46	-101.07	568.02	285	-109.66	327.66	404.49	-30.033	286.98	410.84	-83.279	256.64	389.21	-56.289	358.94	423.92	-8.9693	180.2	393.16	8.9151	218.1	309.76	-36.873	102.81	328.76	-8.6147	83.1	302.12	-16.424	80.623	365.79	127.51	148.87	433.31	160.49	181.13	320.04	201.06	226.72	370.83	-408.35	700.4	90.947	-343.18	613.37	113.16	-414.99	606.8	111.26	-329.68	701.24	90.452	-422.57	515.25	121.83	-522.84	328.82	133.07	-468.12	258.97	136.65	-537.74	260.19	154.65	-457.16	327.41	120.95	-532.45	120.75	167.78	-494.82	132.14	253.95	-594.12	71.912	224.71	-582.61	45.737	256.2	-594.39	45.601	195.34	-414.54	35.945	132.22	-385.63	47.198	251.49	-324.28	53.137	193.89	-322.83	1564.6	240.54	-451.83	1293.9	252.92
133	0.55	-184.05	1255.1	254.35	-257.49	1525.8	400.4	-274.08	1530.2	72.174	-266.14	1816.5	223.84	-251.71	1009.4	389.8	-257.29	1006.9	140.53	-454.54	1027.4	312.77	-455.98	1033.9	221.68	-322.2	932.78	463.89	-360.06	934.68	75.084	-337.09	1095.6	431.04	-345.24	1085.4	96.052	-468.85	995.57	279.21	-167.5	746.93	462.53	-96.382	706.46	401.31	-139.43	663.08	441.4	-129.25	787.1	420.81	-109.31	576.21	418.88	-97.079	565.82	284.06	-99.875	325.95	404.74	-19.375	287.28	411.43	-71.664	255.57	389.68	-47.444	358.6	424.2	4.6605	180.85	394.12	21.73	219	310.7	-21.146	102.63	329.84	7.6855	83.579	303.32	-0.20108	81.019	366.98	141.83	153.08	434.79	174.24	185.91	321.43	213.54	232.62	372.25	-405.01	700.09	90.937	-340.25	612.75	113.14	-412.09	606.54	111.24	-326.34	700.54	90.367	-420.25	514.97	121.86	-521.48	329.03	133.18	-467.13	258.89	136.72	-536.72	260.5	154.8	-455.83	327.27	121	-532.15	120.99	167.95	-494.41	132.2	254.11	-593.92	72.013	224.93	-582.47	45.848	256.4	-594.32	45.772	195.55	-414.53	35.969	132.26	-385.51	47.09	251.51	-324.2	52.971	193.89	-317.68	1563.6	241.15	-446.74	1293	253.44
134	0.55417	-178.97	1254	254.38	-252.12	1524.6	400.92	-268.88	1529.4	72.693	-260.98	1815.5	224.84	-246.07	1008.2	389.58	-252.46	1006.1	140.33	-449.12	1026.5	313.11	-450.84	1033.1	222.03	-316.49	931.33	463.71	-355.55	934.06	75.009	-331.2	1094.4	431.16	-340.51	1084.7	96.178	-463.57	994.7	279.54	-163.13	744.57	462.08	-92.306	703.74	400.75	-135.5	660.57	440.92	-124.75	784.54	420.29	-105.34	574.05	418.33	-93.091	563.6	283.13	-90.202	324.33	405.01	-8.8737	287.67	412.03	-60.201	254.63	390.17	-38.715	358.32	424.5	18.057	181.64	395.07	34.334	220.04	311.64	-5.667	102.66	330.9	23.71	84.286	304.49	15.741	81.63	368.15	155.82	157.36	436.27	187.68	190.76	322.83	225.71	238.53	373.68	-401.63	699.76	90.939	-337.28	612.12	113.12	-409.16	606.26	111.22	-322.96	699.83	90.285	-417.9	514.68	121.89	-520.1	329.23	133.3	-466.12	258.82	136.8	-535.68	260.82	154.94	-454.48	327.13	121.06	-531.83	121.23	168.12	-493.99	132.28	254.27	-593.7	72.116	225.15	-582.32	45.971	256.61	-594.24	45.95	195.77	-414.52	35.994	132.29	-385.39	46.985	251.53	-324.11	52.805	193.88	-312.51	1562.5	241.78	-441.62	1292	253.96
135	0.55833	-173.86	1252.9	254.41	-246.73	1523.3	401.45	-263.65	1528.6	73.231	-255.8	1814.4	225.86	-240.4	1006.9	389.35	-247.6	1005.2	140.13	-443.67	1025.5	313.45	-445.68	1032.3	222.4	-310.75	929.83	463.52	-351.02	933.43	74.932	-325.3	1093	431.3	-335.77	1083.9	96.312	-458.27	993.81	279.88	-158.75	742.17	461.62	-88.229	700.97	400.2	-131.56	658.03	440.44	-120.26	781.93	419.77	-101.35	571.89	417.8	-89.09	561.35	282.23	-80.645	322.81	405.31	1.4652	288.13	412.63	-48.904	253.81	390.68	-30.1	358.1	424.82	31.206	182.57	396.01	46.715	221.2	312.59	9.5404	102.91	331.95	39.434	85.2	305.65	31.377	82.438	369.29	169.47	161.68	437.72	200.79	195.66	324.22	237.56	244.41	375.12	-398.23	699.41	90.953	-334.29	611.47	113.11	-406.2	605.96	111.21	-319.56	699.1	90.205	-415.51	514.37	121.92	-518.69	329.44	133.43	-465.1	258.74	136.89	-534.62	261.13	155.09	-453.1	326.98	121.12	-531.5	121.48	168.3	-493.55	132.36	254.43	-593.46	72.222	225.38	-582.17	46.107	256.83	-594.17	46.135	196.01	-414.52	36.021	132.33	-385.27	46.883	251.56	-324.02	52.636	193.88	-307.33	1561.5	242.42	-436.48	1291	254.51
136	0.5625	-168.72	1251.8	254.45	-241.33	1522	402	-258.4	1527.7	73.787	-250.6	1813.3	226.9	-234.72	1005.6	389.13	-242.71	1004.3	139.94	-438.2	1024.5	313.8	-440.49	1031.4	222.77	-304.99	928.3	463.33	-346.46	932.77	74.855	-319.38	1091.7	431.43	-331	1083.2	96.453	-452.95	992.9	280.22	-154.36	739.74	461.16	-84.14	698.19	399.64	-127.61	655.47	439.95	-115.76	779.3	419.23	-97.322	569.72	417.3	-85.064	559.1	281.36	-71.209	321.39	405.63	11.636	288.67	413.24	-37.784	253.12	391.21	-21.602	357.93	425.15	44.093	183.62	396.95	58.86	222.46	313.52	24.451	103.34	332.99	54.831	86.3	306.79	46.683	83.419	370.42	182.78	166	439.16	213.58	200.56	325.61	249.1	250.24	376.57	-394.8	699.04	90.977	-331.27	610.81	113.08	-403.21	605.65	111.2	-316.14	698.35	90.124	-413.09	514.06	121.95	-517.26	329.65	133.55	-464.05	258.66	136.97	-533.55	261.44	155.23	-451.7	326.82	121.18	-531.14	121.74	168.48	-493.11	132.44	254.6	-593.21	72.336	225.62	-582.02	46.258	257.05	-594.09	46.331	196.25	-414.51	36.049	132.37	-385.14	46.783	251.58	-323.94	52.467	193.87	-302.12	1560.4	243.09	-431.31	1289.9	255.07
137	0.56667	-163.56	1250.6	254.51	-235.9	1520.7	402.57	-253.13	1526.8	74.364	-245.4	1812.2	227.96	-229.03	1004.2	388.9	-237.81	1003.4	139.74	-432.72	1023.5	314.15	-435.28	1030.6	223.15	-299.2	926.73	463.14	-341.88	932.09	74.779	-313.46	1090.3	431.57	-326.2	1082.4	96.602	-447.62	991.96	280.56	-149.96	737.3	460.68	-80.023	695.4	399.08	-123.63	652.9	439.47	-111.25	776.67	418.69	-93.249	567.58	416.83	-81.002	556.86	280.54	-61.899	320.05	405.97	21.633	289.26	413.84	-26.852	252.53	391.77	-13.219	357.81	425.49	56.705	184.77	397.88	70.757	223.81	314.45	39.04	103.94	334	69.875	87.558	307.9	61.635	84.55	371.51	195.72	170.3	440.58	226.04	205.43	327	260.32	255.96	378.02	-391.33	698.65	91.01	-328.22	610.14	113.06	-400.19	605.32	111.19	-312.68	697.58	90.04	-410.62	513.73	121.98	-515.8	329.86	133.68	-462.98	258.58	137.06	-532.45	261.75	155.38	-450.27	326.66	121.24	-530.76	122.01	168.66	-492.66	132.53	254.76	-592.94	72.463	225.85	-581.86	46.428	257.28	-594.02	46.538	196.49	-414.5	36.078	132.41	-385.02	46.687	251.61	-323.85	52.296	193.87	-296.9	1559.3	243.78	-426.12	1288.8	255.64
138	0.57083	-158.38	1249.5	254.57	-230.46	1519.4	403.17	-247.83	1525.9	74.961	-240.18	1811.1	229.04	-223.33	1002.8	388.68	-232.88	1002.4	139.55	-427.21	1022.5	314.51	-430.04	1029.7	223.53	-293.41	925.14	462.95	-337.28	931.4	74.705	-307.55	1088.9	431.72	-321.38	1081.5	96.76	-442.26	991.01	280.91	-145.51	734.87	460.21	-75.865	692.62	398.52	-119.59	650.33	438.99	-106.72	774.05	418.14	-89.107	565.47	416.38	-76.888	554.63	279.75	-52.721	318.81	406.32	31.449	289.89	414.45	-16.12	252.04	392.33	-4.9517	357.72	425.85	69.028	186	398.81	82.396	225.21	315.38	53.284	104.68	334.99	84.542	88.946	308.98	76.21	85.802	372.58	208.31	174.53	441.97	238.16	210.23	328.37	271.23	261.55	379.46	-387.84	698.24	91.051	-325.15	609.44	113.02	-397.14	604.96	111.18	-309.2	696.79	89.951	-408.13	513.38	122	-514.3	330.07	133.8	-461.89	258.49	137.15	-531.33	262.06	155.52	-448.81	326.49	121.3	-530.35	122.29	168.84	-492.2	132.63	254.92	-592.67	72.607	226.08	-581.7	46.618	257.5	-593.94	46.761	196.74	-414.5	36.107	132.45	-384.89	46.595	251.63	-323.76	52.124	193.86	-291.66	1558.1	244.49	-420.9	1287.7	256.23
139	0.575	-153.16	1248.3	254.65	-224.99	1518	403.78	-242.53	1525	75.578	-234.94	1809.9	230.14	-217.62	1001.4	388.47	-227.93	1001.5	139.36	-421.69	1021.4	314.87	-424.79	1028.8	223.92	-287.6	923.51	462.76	-332.65	930.69	74.633	-301.64	1087.5	431.88	-316.53	1080.7	96.926	-436.89	990.04	281.26	-141.02	732.46	459.72	-71.651	689.88	397.95	-115.49	647.8	438.52	-102.15	771.45	417.58	-84.88	563.4	415.97	-72.709	552.42	279.02	-43.678	317.64	406.69	41.081	290.56	415.06	-5.5964	251.65	392.91	3.2007	357.67	426.21	81.048	187.27	399.71	93.765	226.66	316.29	67.158	105.54	335.96	98.807	90.432	310.04	90.384	87.146	373.61	220.53	178.65	443.32	249.93	214.92	329.72	281.83	266.97	380.89	-384.32	697.81	91.096	-322.04	608.73	112.98	-394.05	604.59	111.18	-305.69	695.98	89.856	-405.59	513.02	122.02	-512.78	330.28	133.91	-460.78	258.4	137.23	-530.19	262.37	155.66	-447.33	326.31	121.35	-529.92	122.58	169.02	-491.73	132.74	255.08	-592.39	72.773	226.31	-581.54	46.83	257.72	-593.85	47.003	196.98	-414.49	36.137	132.5	-384.76	46.507	251.65	-323.67	51.951	193.85	-286.4	1557	245.22	-415.66	1286.6	256.83
140	0.57917	-147.92	1247.1	254.73	-219.51	1516.6	404.41	-237.22	1524.1	76.217	-229.7	1808.7	231.26	-211.9	999.94	388.25	-222.96	1000.5	139.18	-416.16	1020.3	315.24	-419.51	1027.9	224.32	-281.79	921.87	462.58	-328	929.95	74.565	-295.75	1086	432.03	-311.65	1079.8	97.101	-431.51	989.05	281.62	-136.46	730.08	459.23	-67.364	687.2	397.39	-111.29	645.3	438.04	-97.541	768.91	417.02	-80.549	561.4	415.58	-68.452	550.26	278.34	-34.777	316.56	407.05	50.523	291.23	415.66	4.7079	251.32	393.49	11.24	357.63	426.58	92.754	188.58	400.61	104.85	228.11	317.19	80.639	106.49	336.9	112.65	91.984	311.06	104.13	88.551	374.62	232.37	182.65	444.64	261.36	219.47	331.05	292.13	272.18	382.31	-380.76	697.37	91.143	-318.9	608	112.92	-390.94	604.2	111.17	-302.15	695.16	89.753	-403.01	512.65	122.03	-511.22	330.49	134.02	-459.65	258.3	137.31	-529.02	262.68	155.79	-445.82	326.13	121.4	-529.46	122.89	169.19	-491.25	132.86	255.23	-592.12	72.966	226.54	-581.38	47.068	257.94	-593.77	47.265	197.22	-414.48	36.167	132.54	-384.62	46.424	251.68	-323.57	51.776	193.84	-281.11	1555.8	245.97	-410.39	1285.5	257.45
